<?xml version="1.0" encoding="UTF-8" standalone="no"?><!DOCTYPE svg PUBLIC "-//W3C//DTD SVG 1.1//EN" "http://www.w3.org/Graphics/SVG/1.1/DTD/svg11.dtd"><svg width="100%" height="100%" viewBox="0 0 18 18" version="1.1" xmlns="http://www.w3.org/2000/svg" xmlns:xlink="http://www.w3.org/1999/xlink" xml:space="preserve" xmlns:serif="http://www.serif.com/" style="fill-rule:evenodd;clip-rule:evenodd;stroke-linejoin:round;stroke-miterlimit:2;"><g id="Group_11"><path id="Path_8" d="M7.041,2.077c-1.266,0.001 -2.441,0.675 -3.079,1.768l-1.961,3.385c-0.633,1.094 -0.633,2.446 0,3.54l1.96,3.383c0.638,1.093 1.812,1.769 3.079,1.77l3.921,0c1.266,-0.001 2.441,-0.677 3.079,-1.77l1.96,-3.382c0.632,-1.095 0.632,-2.447 0,-3.541l-1.96,-3.384c-0.638,-1.094 -1.813,-1.77 -3.079,-1.77l-3.92,0.002Zm3.921,15.177l-3.921,0c-1.743,-0.002 -3.359,-0.931 -4.237,-2.436l-1.961,-3.382c-0.871,-1.506 -0.871,-3.368 0,-4.873l1.96,-3.382c0.878,-1.506 2.494,-2.436 4.238,-2.436l3.92,0c1.743,0.001 3.359,0.931 4.237,2.437l0.008,0.014l1.952,3.367c0.87,1.505 0.87,3.367 0,4.873l-1.96,3.382c-0.878,1.505 -2.495,2.434 -4.237,2.436l0.001,0Z" style="fill:#fff;"/><path id="Path_9" d="M7.997,4.797c-0.902,0 -1.738,0.481 -2.192,1.26l-1,1.731c-0.45,0.778 -0.45,1.742 0,2.52l1,1.733c0.454,0.779 1.29,1.26 2.192,1.261l2.008,0c0.901,-0.001 1.737,-0.482 2.192,-1.26l1,-1.733c0.449,-0.779 0.449,-1.741 0,-2.52l-1,-1.733c-0.455,-0.778 -1.291,-1.259 -2.192,-1.259l-2.008,0Zm2.007,9.836l-2.007,0c-1.378,-0.001 -2.656,-0.736 -3.35,-1.925l-1,-1.732c-0.688,-1.191 -0.688,-2.662 0,-3.852l1,-1.732c0.694,-1.191 1.972,-1.926 3.35,-1.926l2.007,0c1.378,0 2.655,0.735 3.35,1.925l1,1.732c0.688,1.19 0.688,2.662 0,3.852l-1,1.732c-0.694,1.19 -1.972,1.925 -3.35,1.927l0,-0.001Z" style="fill:#fff;"/><path id="Path_10" d="M8.952,7.517c-0.535,0.002 -1.031,0.287 -1.3,0.75l-0.047,0.082c-0.268,0.463 -0.268,1.036 0,1.499l0.047,0.082c0.269,0.463 0.765,0.748 1.3,0.75l0.095,0c0.535,-0.002 1.03,-0.287 1.3,-0.75l0.047,-0.082c0.267,-0.463 0.267,-1.036 0,-1.5l-0.043,-0.083c-0.27,-0.461 -0.766,-0.747 -1.3,-0.748l-0.099,0Zm0.095,4.5l-0.095,0c-1.014,-0.002 -1.953,-0.544 -2.462,-1.421l-0.047,-0.081c-0.505,-0.874 -0.505,-1.955 0,-2.829l0.047,-0.082c0.509,-0.875 1.448,-1.417 2.462,-1.418l0.095,0c1.013,0 1.952,0.54 2.463,1.415l0.046,0.08c0.505,0.876 0.505,1.958 0,2.834l-0.046,0.079c-0.51,0.876 -1.45,1.417 -2.463,1.418l0,0.005Z" style="fill:#fff;"/></g></svg>